<svg xmlns="http://www.w3.org/2000/svg" xmlns:xlink="http://www.w3.org/1999/xlink" contentStyleType="text/css" data-diagram-type="ACTIVITY" height="2281px" preserveAspectRatio="none" style="width:5403px;height:2281px;background:#FFFFFF;" version="1.1" viewBox="0 0 5403 2281" width="5403px" zoomAndPan="magnify"><?plantuml 1.2026.3beta6?><defs/><g><g class="title" data-source-line="5"><text fill="#000000" font-family="Inter" font-size="14" font-weight="700" lengthAdjust="spacing" textLength="568.1963" x="2416.8297" y="32.9951">Harmonogramowanie bie&#380;&#261;cych prac eksploatacyjnych i inwestycyjnych</text></g><rect fill="none" height="20.9531" style="stroke:none;stroke-width:1;" width="5356.8556" x="20" y="55.042"/><ellipse cx="191.71" cy="90.9951" fill="#222222" rx="10" ry="10" style="stroke:#222222;stroke-width:1;"/><rect fill="#EEF2FF" height="33.9688" rx="12.5" ry="12.5" style="stroke:#4F46E5;stroke-width:0.5;" width="174.1309" x="104.6445" y="120.9951"/><text fill="#000000" font-family="Inter" font-size="12" lengthAdjust="spacing" textLength="154.1309" x="114.6445" y="142.1338">Przygotowuje plan roczny</text><rect fill="#EEF2FF" height="33.9688" rx="12.5" ry="12.5" style="stroke:#4F46E5;stroke-width:0.5;" width="231.7813" x="75.8193" y="174.9639"/><text fill="#000000" font-family="Inter" font-size="12" lengthAdjust="spacing" textLength="211.7813" x="85.8193" y="196.1025">Rozbija plan roczny na 12 miesi&#281;cy</text><rect fill="#EEF2FF" height="33.9688" rx="12.5" ry="12.5" style="stroke:#4F46E5;stroke-width:0.5;" width="325.2852" x="29.0674" y="228.9326"/><text fill="#000000" font-family="Inter" font-size="12" lengthAdjust="spacing" textLength="305.2852" x="39.0674" y="250.0713">&#321;&#261;czy plan prac eksploatacyjnych i inwestycyjnych</text><path d="M387.0056,282.9014 L387.0056,308.0342 L860.6697,308.0342 L860.6697,292.9014 L850.6697,282.9014 L387.0056,282.9014" fill="#FEFFDD" style="stroke:#181818;stroke-width:0.5;"/><path d="M850.6697,282.9014 L850.6697,292.9014 L860.6697,292.9014 L850.6697,282.9014" fill="#FEFFDD" style="stroke:#181818;stroke-width:0.5;"/><text fill="#000000" font-family="Inter" font-size="13" lengthAdjust="spacing" textLength="452.6641" x="393.0056" y="299.9683">Plan na kolejny miesi&#261;c jest przekazywany z wyprzedzeniem 5-10 dni</text><path d="M367.4199,328.0342 L367.4199,353.167 L880.2554,353.167 L880.2554,338.0342 L870.2554,328.0342 L367.4199,328.0342" fill="#FEFFDD" style="stroke:#181818;stroke-width:0.5;"/><path d="M870.2554,328.0342 L870.2554,338.0342 L880.2554,338.0342 L870.2554,328.0342" fill="#FEFFDD" style="stroke:#181818;stroke-width:0.5;"/><text fill="#000000" font-family="Inter" font-size="13" lengthAdjust="spacing" textLength="491.8354" x="373.4199" y="345.1011">Plan obejmuje typ zadania, ilo&#347;&#263;, czasoch&#322;onno&#347;&#263; i wymagane kompetencje</text><rect fill="#EEF2FF" height="33.9688" rx="12.5" ry="12.5" style="stroke:#4F46E5;stroke-width:0.5;" width="331.4199" x="26" y="301.0498"/><text fill="#000000" font-family="Inter" font-size="12" lengthAdjust="spacing" textLength="311.4199" x="36" y="322.1885">Przekazuje plan miesi&#281;czny do dzia&#322;u wykonawstwa</text><line style="stroke:#000000;stroke-width:1.5;" x1="20" x2="20" y1="55.042" y2="2260.9053"/><path d="M1389.1636,387.585 L1389.1636,396.1514 L1369.1636,400.1514 L1389.1636,404.1514 L1389.1636,412.7178 A0,0 0 0 0 1389.1636,412.7178 L1785.3164,412.7178 A0,0 0 0 0 1785.3164,412.7178 L1785.3164,397.585 L1775.3164,387.585 L1389.1636,387.585 A0,0 0 0 0 1389.1636,387.585" fill="#FEFFDD" style="stroke:#181818;stroke-width:0.5;"/><path d="M1775.3164,387.585 L1775.3164,397.585 L1785.3164,397.585 L1775.3164,387.585" fill="#FEFFDD" style="stroke:#181818;stroke-width:0.5;"/><text fill="#000000" font-family="Inter" font-size="13" lengthAdjust="spacing" textLength="375.1528" x="1395.1636" y="404.6519">Rejestr brygad i pracownik&#243;w oraz kalendarz dost&#281;pno&#347;ci</text><rect fill="#EEF2FF" height="33.9688" rx="12.5" ry="12.5" style="stroke:#4F46E5;stroke-width:0.5;" width="467.9082" x="901.2554" y="383.167"/><text fill="#000000" font-family="Inter" font-size="12" lengthAdjust="spacing" textLength="447.9082" x="911.2554" y="404.3057">Utrzymuje dane o brygadach, pracownikach, kompetencjach i dost&#281;pno&#347;ci</text><line style="stroke:#000000;stroke-width:1.5;" x1="895.2554" x2="895.2554" y1="55.042" y2="2260.9053"/><rect fill="#EEF2FF" height="33.9688" rx="12.5" ry="12.5" style="stroke:#4F46E5;stroke-width:0.5;" width="168.2012" x="2104.379" y="437.1357"/><text fill="#000000" font-family="Inter" font-size="12" lengthAdjust="spacing" textLength="148.2012" x="2114.379" y="458.2744">Odbiera plan miesi&#281;czny</text><path d="M2843.1044,491.1045 L2843.1044,516.2373 L3492.0272,516.2373 L3492.0272,501.1045 L3482.0272,491.1045 L2843.1044,491.1045" fill="#FEFFDD" style="stroke:#181818;stroke-width:0.5;"/><path d="M3482.0272,491.1045 L3482.0272,501.1045 L3492.0272,501.1045 L3482.0272,491.1045" fill="#FEFFDD" style="stroke:#181818;stroke-width:0.5;"/><text fill="#000000" font-family="Inter" font-size="13" lengthAdjust="spacing" textLength="627.9229" x="2849.1044" y="508.1714">Wej&#347;cia: plan miesi&#281;czny, katalog zada&#324;, dane HR, parametry planowania i s&#322;owniki pomocnicze</text><path d="M2333.797,536.2373 L2333.797,561.3701 L4001.3346,561.3701 L4001.3346,546.2373 L3991.3346,536.2373 L2333.797,536.2373" fill="#FEFFDD" style="stroke:#181818;stroke-width:0.5;"/><path d="M3991.3346,536.2373 L3991.3346,546.2373 L4001.3346,546.2373 L3991.3346,536.2373" fill="#FEFFDD" style="stroke:#181818;stroke-width:0.5;"/><text fill="#000000" font-family="Inter" font-size="13" lengthAdjust="spacing" textLength="1646.5376" x="2339.797" y="553.3042">Atrybuty zadania: typ pracy, obszar infrastruktury, jednostka, ilo&#347;&#263;, czasoch&#322;onno&#347;&#263;, wymagane kompetencje, minimalna liczba os&#243;b i brygad, termin sztywny albo data wymagana, priorytet, wymagane wy&#322;&#261;czenie, mo&#380;liwo&#347;&#263; przesuni&#281;cia albo podzia&#322;u</text><rect fill="#EEF2FF" height="33.9688" rx="12.5" ry="12.5" style="stroke:#4F46E5;stroke-width:0.5;" width="270.6348" x="2053.1622" y="509.2529"/><text fill="#000000" font-family="Inter" font-size="12" lengthAdjust="spacing" textLength="250.6348" x="2063.1622" y="530.3916">Analizuje plan miesi&#281;czny i katalog zada&#324;</text><path d="M2354.6603,595.7881 L2354.6603,604.3545 L2334.6603,608.3545 L2354.6603,612.3545 L2354.6603,620.9209 A0,0 0 0 0 2354.6603,620.9209 L2828.5656,620.9209 A0,0 0 0 0 2828.5656,620.9209 L2828.5656,605.7881 L2818.5656,595.7881 L2354.6603,595.7881 A0,0 0 0 0 2354.6603,595.7881" fill="#FEFFDD" style="stroke:#181818;stroke-width:0.5;"/><path d="M2818.5656,595.7881 L2818.5656,605.7881 L2828.5656,605.7881 L2818.5656,595.7881" fill="#FEFFDD" style="stroke:#181818;stroke-width:0.5;"/><text fill="#000000" font-family="Inter" font-size="13" lengthAdjust="spacing" textLength="452.9053" x="2360.6603" y="612.855">Dost&#281;pno&#347;&#263; analizowana na poziomie dnia i liczby dost&#281;pnych godzin</text><rect fill="#EEF2FF" height="33.9688" rx="12.5" ry="12.5" style="stroke:#4F46E5;stroke-width:0.5;" width="292.3613" x="2042.299" y="591.3701"/><text fill="#000000" font-family="Inter" font-size="12" lengthAdjust="spacing" textLength="272.3613" x="2052.299" y="612.5088">Weryfikuje dost&#281;pno&#347;&#263; pracownik&#243;w i brygad</text><path d="M2455.0284,649.7568 L2455.0284,658.3232 L2435.0284,662.3232 L2455.0284,666.3232 L2455.0284,674.8896 A0,0 0 0 0 2455.0284,674.8896 L3006.3497,674.8896 A0,0 0 0 0 3006.3497,674.8896 L3006.3497,659.7568 L2996.3497,649.7568 L2455.0284,649.7568 A0,0 0 0 0 2455.0284,649.7568" fill="#FEFFDD" style="stroke:#181818;stroke-width:0.5;"/><path d="M2996.3497,649.7568 L2996.3497,659.7568 L3006.3497,659.7568 L2996.3497,649.7568" fill="#FEFFDD" style="stroke:#181818;stroke-width:0.5;"/><text fill="#000000" font-family="Inter" font-size="13" lengthAdjust="spacing" textLength="530.3213" x="2461.0284" y="666.8237">Kompetencje s&#261; analizowane na poziomie pracownik&#243;w przypisanych do brygady</text><rect fill="#EEF2FF" height="33.9688" rx="12.5" ry="12.5" style="stroke:#4F46E5;stroke-width:0.5;" width="493.0977" x="1941.9308" y="645.3389"/><text fill="#000000" font-family="Inter" font-size="12" lengthAdjust="spacing" textLength="473.0977" x="1951.9308" y="666.4775">Weryfikuje pokrycie wymaganych kompetencji przez dost&#281;pnych pracownik&#243;w</text><rect fill="#EEF2FF" height="33.9688" rx="12.5" ry="12.5" style="stroke:#4F46E5;stroke-width:0.5;" width="315.6816" x="2030.6388" y="747.71"/><text fill="#000000" font-family="Inter" font-size="12" lengthAdjust="spacing" textLength="295.6816" x="2040.6388" y="768.8486">Uwzgl&#281;dnia wymagany termin w harmonogramie</text><polygon fill="#EEF2FF" points="2037.9064,699.3076,2339.0529,699.3076,2351.0529,711.3076,2339.0529,723.3076,2037.9064,723.3076,2025.9064,711.3076,2037.9064,699.3076" style="stroke:#4F46E5;stroke-width:0.5;"/><text fill="#000000" font-family="Inter" font-size="11" lengthAdjust="spacing" textLength="17.4238" x="2192.4796" y="733.5181">tak</text><text fill="#000000" font-family="Inter" font-size="11" lengthAdjust="spacing" textLength="301.1465" x="2037.9064" y="715.1157">Zadanie ma termin sztywny albo wymaga wy&#322;&#261;czenia?</text><text fill="#000000" font-family="Inter" font-size="11" lengthAdjust="spacing" textLength="16.7954" x="2351.0529" y="708.7134">nie</text><polygon fill="#EEF2FF" points="2188.4796,801.6787,2200.4796,813.6787,2188.4796,825.6787,2176.4796,813.6787,2188.4796,801.6787" style="stroke:#4F46E5;stroke-width:0.5;"/><polygon fill="#EEF2FF" points="2063.8273,845.6787,2313.132,845.6787,2325.132,857.6787,2313.132,869.6787,2063.8273,869.6787,2051.8273,857.6787,2063.8273,845.6787" style="stroke:#4F46E5;stroke-width:0.5;"/><text fill="#000000" font-family="Inter" font-size="11" lengthAdjust="spacing" textLength="249.3047" x="2063.8273" y="861.4868">Dost&#281;pno&#347;&#263; i kompetencje s&#261; wystarczaj&#261;ce?</text><text fill="#000000" font-family="Inter" font-size="11" lengthAdjust="spacing" textLength="17.4238" x="2034.4034" y="855.0845">tak</text><text fill="#000000" font-family="Inter" font-size="11" lengthAdjust="spacing" textLength="16.7954" x="2325.132" y="855.0845">nie</text><rect fill="#EEF2FF" height="33.9688" rx="12.5" ry="12.5" style="stroke:#4F46E5;stroke-width:0.5;" width="240.6582" x="1900.3712" y="879.6787"/><text fill="#000000" font-family="Inter" font-size="12" lengthAdjust="spacing" textLength="220.6582" x="1910.3712" y="900.8174">Przypisuje zadanie do dnia i brygady</text><rect fill="#EEF2FF" height="33.9688" rx="12.5" ry="12.5" style="stroke:#4F46E5;stroke-width:0.5;" width="390.459" x="2161.0294" y="879.6787"/><text fill="#000000" font-family="Inter" font-size="12" lengthAdjust="spacing" textLength="370.459" x="2171.0294" y="900.8174">Wskazuje zadanie jako wymagaj&#261;ce decyzji albo przesuni&#281;cia</text><polygon fill="#EEF2FF" points="2188.4796,919.6475,2200.4796,931.6475,2188.4796,943.6475,2176.4796,931.6475,2188.4796,919.6475" style="stroke:#4F46E5;stroke-width:0.5;"/><path d="M2347.7726,968.0654 L2347.7726,976.6318 L2327.7726,980.6318 L2347.7726,984.6318 L2347.7726,993.1982 A0,0 0 0 0 2347.7726,993.1982 L2528.2828,993.1982 A0,0 0 0 0 2528.2828,993.1982 L2528.2828,978.0654 L2518.2828,968.0654 L2347.7726,968.0654 A0,0 0 0 0 2347.7726,968.0654" fill="#FEFFDD" style="stroke:#181818;stroke-width:0.5;"/><path d="M2518.2828,968.0654 L2518.2828,978.0654 L2528.2828,978.0654 L2518.2828,968.0654" fill="#FEFFDD" style="stroke:#181818;stroke-width:0.5;"/><text fill="#000000" font-family="Inter" font-size="13" lengthAdjust="spacing" textLength="159.5103" x="2353.7726" y="985.1323">Excel / pliki planistyczne</text><rect fill="#EEF2FF" height="33.9688" rx="12.5" ry="12.5" style="stroke:#4F46E5;stroke-width:0.5;" width="278.5859" x="2049.1866" y="963.6475"/><text fill="#000000" font-family="Inter" font-size="12" lengthAdjust="spacing" textLength="258.5859" x="2059.1866" y="984.7861">Uk&#322;ada harmonogram miesi&#281;czny w Excelu</text><rect fill="#EEF2FF" height="33.9688" rx="12.5" ry="12.5" style="stroke:#4F46E5;stroke-width:0.5;" width="332.627" x="2022.1661" y="1017.6162"/><text fill="#000000" font-family="Inter" font-size="12" lengthAdjust="spacing" textLength="312.627" x="2032.1661" y="1038.7549">Pozostawia oko&#322;o 10% rezerwy na awarie i absencje</text><path d="M2389.9396,1129.9717 L2389.9396,1138.5381 L2369.9396,1142.5381 L2389.9396,1146.5381 L2389.9396,1155.1045 A0,0 0 0 0 2389.9396,1155.1045 L2921.1134,1155.1045 A0,0 0 0 0 2921.1134,1155.1045 L2921.1134,1139.9717 L2911.1134,1129.9717 L2389.9396,1129.9717 A0,0 0 0 0 2389.9396,1129.9717" fill="#FEFFDD" style="stroke:#181818;stroke-width:0.5;"/><path d="M2911.1134,1129.9717 L2911.1134,1139.9717 L2921.1134,1139.9717 L2911.1134,1129.9717" fill="#FEFFDD" style="stroke:#181818;stroke-width:0.5;"/><text fill="#000000" font-family="Inter" font-size="13" lengthAdjust="spacing" textLength="510.1738" x="2395.9396" y="1147.0386">Wej&#347;cia: harmonogram miesi&#281;czny, aplikacja albo dziennik RDM oraz dane HR</text><rect fill="#EEF2FF" height="33.9688" rx="12.5" ry="12.5" style="stroke:#4F46E5;stroke-width:0.5;" width="362.9199" x="2007.0197" y="1125.5537"/><text fill="#000000" font-family="Inter" font-size="12" lengthAdjust="spacing" textLength="342.9199" x="2017.0197" y="1146.6924">Odczytuje zg&#322;oszenia awaryjne i informacje o absencjach</text><rect fill="#EEF2FF" height="33.9688" rx="12.5" ry="12.5" style="stroke:#4F46E5;stroke-width:0.5;" width="320.293" x="2028.3331" y="1227.9248"/><text fill="#000000" font-family="Inter" font-size="12" lengthAdjust="spacing" textLength="300.293" x="2038.3331" y="1249.0635">Ocenia konieczno&#347;&#263; realizacji zadania awaryjnego</text><polygon fill="#EEF2FF" points="2055.2067,1281.8936,2321.7526,1281.8936,2333.7526,1293.8936,2321.7526,1305.8936,2055.2067,1305.8936,2043.2067,1293.8936,2055.2067,1281.8936" style="stroke:#4F46E5;stroke-width:0.5;"/><text fill="#000000" font-family="Inter" font-size="11" lengthAdjust="spacing" textLength="266.5459" x="2055.2067" y="1297.7017">Zadanie awaryjne jest konieczne do wykonania?</text><text fill="#000000" font-family="Inter" font-size="11" lengthAdjust="spacing" textLength="17.4238" x="2025.7828" y="1291.2993">tak</text><text fill="#000000" font-family="Inter" font-size="11" lengthAdjust="spacing" textLength="16.7954" x="2333.7526" y="1291.2993">nie</text><rect fill="#EEF2FF" height="33.9688" rx="12.5" ry="12.5" style="stroke:#4F46E5;stroke-width:0.5;" width="246.8574" x="1864.4226" y="1364.2959"/><text fill="#000000" font-family="Inter" font-size="12" lengthAdjust="spacing" textLength="226.8574" x="1874.4226" y="1385.4346">Nadaje priorytet zadaniu awaryjnemu</text><polygon fill="#EEF2FF" points="1817.3164,1315.8936,2158.3862,1315.8936,2170.3862,1327.8936,2158.3862,1339.8936,1817.3164,1339.8936,1805.3164,1327.8936,1817.3164,1315.8936" style="stroke:#4F46E5;stroke-width:0.5;"/><text fill="#000000" font-family="Inter" font-size="11" lengthAdjust="spacing" textLength="17.4238" x="1991.8513" y="1350.104">tak</text><text fill="#000000" font-family="Inter" font-size="11" lengthAdjust="spacing" textLength="341.0698" x="1817.3164" y="1331.7017">Wyst&#281;puje zagro&#380;enie &#380;ycia albo konieczno&#347;&#263; pilnej naprawy?</text><text fill="#000000" font-family="Inter" font-size="11" lengthAdjust="spacing" textLength="16.7954" x="2170.3862" y="1325.2993">nie</text><polygon fill="#EEF2FF" points="1987.8513,1418.2646,1999.8513,1430.2646,1987.8513,1442.2646,1975.8513,1430.2646,1987.8513,1418.2646" style="stroke:#4F46E5;stroke-width:0.5;"/><rect fill="#EEF2FF" height="33.9688" rx="12.5" ry="12.5" style="stroke:#4F46E5;stroke-width:0.5;" width="226.7656" x="1874.4685" y="1463.8467"/><text fill="#000000" font-family="Inter" font-size="12" lengthAdjust="spacing" textLength="206.7656" x="1884.4685" y="1484.9854">Przeplanowuje dzie&#324; pracy brygad</text><rect fill="#EEF2FF" height="33.9688" rx="12.5" ry="12.5" style="stroke:#4F46E5;stroke-width:0.5;" width="168.8398" x="1903.4314" y="1517.8154"/><text fill="#000000" font-family="Inter" font-size="12" lengthAdjust="spacing" textLength="148.8398" x="1913.4314" y="1538.9541">Przesuwa prace planowe</text><path d="M2110.4089,1576.2021 L2110.4089,1584.7686 L2090.4089,1588.7686 L2110.4089,1592.7686 L2110.4089,1601.335 A0,0 0 0 0 2110.4089,1601.335 L2166.0735,1601.335 A0,0 0 0 0 2166.0735,1601.335 L2166.0735,1586.2021 L2156.0735,1576.2021 L2110.4089,1576.2021 A0,0 0 0 0 2110.4089,1576.2021" fill="#FEFFDD" style="stroke:#181818;stroke-width:0.5;"/><path d="M2156.0735,1576.2021 L2156.0735,1586.2021 L2166.0735,1586.2021 L2156.0735,1576.2021" fill="#FEFFDD" style="stroke:#181818;stroke-width:0.5;"/><text fill="#000000" font-family="Inter" font-size="13" lengthAdjust="spacing" textLength="34.6646" x="2116.4089" y="1593.269">Excel</text><rect fill="#EEF2FF" height="33.9688" rx="12.5" ry="12.5" style="stroke:#4F46E5;stroke-width:0.5;" width="205.1152" x="1885.2937" y="1571.7842"/><text fill="#000000" font-family="Inter" font-size="12" lengthAdjust="spacing" textLength="185.1152" x="1895.2937" y="1592.9229">Aktualizuje harmonogram dnia</text><rect fill="#EEF2FF" height="33.9688" rx="12.5" ry="12.5" style="stroke:#4F46E5;stroke-width:0.5;" width="373.4434" x="2202.3862" y="1315.8936"/><text fill="#000000" font-family="Inter" font-size="12" lengthAdjust="spacing" textLength="353.4434" x="2212.3862" y="1337.0322">Nie kieruje zadania awaryjnego do realizacji w danym dniu</text><polygon fill="#EEF2FF" points="2188.4796,1611.7529,2200.4796,1623.7529,2188.4796,1635.7529,2176.4796,1623.7529,2188.4796,1611.7529" style="stroke:#4F46E5;stroke-width:0.5;"/><polygon fill="#EEF2FF" points="2096.6554,1179.5225,2280.3038,1179.5225,2292.3038,1191.5225,2280.3038,1203.5225,2096.6554,1203.5225,2084.6554,1191.5225,2096.6554,1179.5225" style="stroke:#4F46E5;stroke-width:0.5;"/><text fill="#000000" font-family="Inter" font-size="11" lengthAdjust="spacing" textLength="17.4238" x="2192.4796" y="1213.7329">tak</text><text fill="#000000" font-family="Inter" font-size="11" lengthAdjust="spacing" textLength="183.6484" x="2096.6554" y="1195.3306">Wyst&#281;puje awaria albo absencja?</text><text fill="#000000" font-family="Inter" font-size="11" lengthAdjust="spacing" textLength="16.7954" x="2292.3038" y="1188.9282">nie</text><polygon fill="#EEF2FF" points="2188.4796,1655.7529,2200.4796,1667.7529,2188.4796,1679.7529,2176.4796,1667.7529,2188.4796,1655.7529" style="stroke:#4F46E5;stroke-width:0.5;"/><rect fill="#EEF2FF" height="33.9688" rx="12.5" ry="12.5" style="stroke:#4F46E5;stroke-width:0.5;" width="473.7031" x="1951.6281" y="2184.9365"/><text fill="#000000" font-family="Inter" font-size="12" lengthAdjust="spacing" textLength="453.7031" x="1961.6281" y="2206.0752">Przekazuje do dzia&#322;u planowania informacj&#281; o zadaniach niezrealizowanych</text><ellipse cx="2188.4796" cy="2249.9053" fill="none" rx="11" ry="11" style="stroke:#222222;stroke-width:1;"/><ellipse cx="2188.4796" cy="2249.9053" fill="#222222" rx="6" ry="6" style="stroke:#222222;stroke-width:1;"/><line style="stroke:#000000;stroke-width:1.5;" x1="1790.3164" x2="1790.3164" y1="55.042" y2="2260.9053"/><path d="M4348.0084,1076.0029 L4348.0084,1084.5693 L4328.0084,1088.5693 L4348.0084,1092.5693 L4348.0084,1101.1357 A0,0 0 0 0 4348.0084,1101.1357 L4730.7296,1101.1357 A0,0 0 0 0 4730.7296,1101.1357 L4730.7296,1086.0029 L4720.7296,1076.0029 L4348.0084,1076.0029 A0,0 0 0 0 4348.0084,1076.0029" fill="#FEFFDD" style="stroke:#181818;stroke-width:0.5;"/><path d="M4720.7296,1076.0029 L4720.7296,1086.0029 L4730.7296,1086.0029 L4720.7296,1076.0029" fill="#FEFFDD" style="stroke:#181818;stroke-width:0.5;"/><text fill="#000000" font-family="Inter" font-size="13" lengthAdjust="spacing" textLength="361.7212" x="4354.0084" y="1093.0698">Zg&#322;oszenie wskazuje zadania usuni&#281;te albo do naprawy</text><rect fill="#EEF2FF" height="33.9688" rx="12.5" ry="12.5" style="stroke:#4F46E5;stroke-width:0.5;" width="305.6738" x="4022.3346" y="1071.585"/><text fill="#000000" font-family="Inter" font-size="12" lengthAdjust="spacing" textLength="285.6738" x="4032.3346" y="1092.7236">Wpisuje awarie do aplikacji albo dziennika RDM</text><line style="stroke:#000000;stroke-width:1.5;" x1="4016.3346" x2="4016.3346" y1="55.042" y2="2260.9053"/><rect fill="#EEF2FF" height="33.9688" rx="12.5" ry="12.5" style="stroke:#4F46E5;stroke-width:0.5;" width="241.584" x="4838.5724" y="1699.7529"/><text fill="#000000" font-family="Inter" font-size="12" lengthAdjust="spacing" textLength="221.584" x="4848.5724" y="1720.8916">Realizuj&#261; przydzielone prace na sieci</text><rect fill="#EEF2FF" height="33.9688" rx="12.5" ry="12.5" style="stroke:#4F46E5;stroke-width:0.5;" width="313.9707" x="4802.379" y="1802.124"/><text fill="#000000" font-family="Inter" font-size="12" lengthAdjust="spacing" textLength="293.9707" x="4812.379" y="1823.2627">Przygotowuj&#261; sie&#263; do pracy brygady zewn&#281;trznej</text><rect fill="#EEF2FF" height="33.9688" rx="12.5" ry="12.5" style="stroke:#4F46E5;stroke-width:0.5;" width="296.7617" x="4810.9835" y="1856.0928"/><text fill="#000000" font-family="Inter" font-size="12" lengthAdjust="spacing" textLength="276.7617" x="4820.9835" y="1877.2314">Sprawdzaj&#261; uprawnienia brygady zewn&#281;trznej</text><rect fill="#EEF2FF" height="33.9688" rx="12.5" ry="12.5" style="stroke:#4F46E5;stroke-width:0.5;" width="389.2695" x="4764.7296" y="1910.0615"/><text fill="#000000" font-family="Inter" font-size="12" lengthAdjust="spacing" textLength="369.2695" x="4774.7296" y="1931.2002">Wy&#322;&#261;czaj&#261; obiekt i dopuszczaj&#261; brygad&#281; zewn&#281;trzn&#261; do pracy</text><rect fill="#EEF2FF" height="33.9688" rx="12.5" ry="12.5" style="stroke:#4F46E5;stroke-width:0.5;" width="264.6289" x="4827.0499" y="2032.999"/><text fill="#000000" font-family="Inter" font-size="12" lengthAdjust="spacing" textLength="244.6289" x="4837.0499" y="2054.1377">Weryfikuj&#261; technicznie zako&#324;czenie prac</text><rect fill="#EEF2FF" height="33.9688" rx="12.5" ry="12.5" style="stroke:#4F46E5;stroke-width:0.5;" width="269.9551" x="4824.3868" y="2086.9678"/><text fill="#000000" font-family="Inter" font-size="12" lengthAdjust="spacing" textLength="249.9551" x="4834.3868" y="2108.1064">Za&#322;&#261;czaj&#261; napi&#281;cie i ko&#324;cz&#261; dopuszczenie</text><polygon fill="#EEF2FF" points="4779.6207,1753.7217,5139.108,1753.7217,5151.108,1765.7217,5139.108,1777.7217,4779.6207,1777.7217,4767.6207,1765.7217,4779.6207,1753.7217" style="stroke:#4F46E5;stroke-width:0.5;"/><text fill="#000000" font-family="Inter" font-size="11" lengthAdjust="spacing" textLength="17.4238" x="4963.3644" y="1787.9321">tak</text><text fill="#000000" font-family="Inter" font-size="11" lengthAdjust="spacing" textLength="359.4873" x="4779.6207" y="1769.5298">Praca inwestycyjna jest wykonywana przez brygad&#281; zewn&#281;trzn&#261;?</text><text fill="#000000" font-family="Inter" font-size="11" lengthAdjust="spacing" textLength="16.7954" x="4750.8253" y="1763.1274">nie</text><polygon fill="#EEF2FF" points="4959.3644,2140.9365,4971.3644,2152.9365,4959.3644,2164.9365,4947.3644,2152.9365,4959.3644,2140.9365" style="stroke:#4F46E5;stroke-width:0.5;"/><line style="stroke:#000000;stroke-width:1.5;" x1="4735.7296" x2="4735.7296" y1="55.042" y2="2260.9053"/><rect fill="#EEF2FF" height="33.9688" rx="12.5" ry="12.5" style="stroke:#4F46E5;stroke-width:0.5;" width="198.8867" x="5172.108" y="1979.0303"/><text fill="#000000" font-family="Inter" font-size="12" lengthAdjust="spacing" textLength="178.8867" x="5182.108" y="2000.1689">Wykonuje prac&#281; inwestycyjn&#261;</text><line style="stroke:#000000;stroke-width:1.5;" x1="5166.108" x2="5166.108" y1="55.042" y2="2260.9053"/><line style="stroke:#000000;stroke-width:1.5;" x1="5374.9948" x2="5374.9948" y1="55.042" y2="2260.9053"/><line style="stroke:#181818;stroke-width:1;" x1="191.71" x2="191.71" y1="100.9951" y2="120.9951"/><polygon fill="#181818" points="187.71,110.9951,191.71,120.9951,195.71,110.9951,191.71,114.9951" style="stroke:#181818;stroke-width:1;"/><line style="stroke:#181818;stroke-width:1;" x1="191.71" x2="191.71" y1="154.9639" y2="174.9639"/><polygon fill="#181818" points="187.71,164.9639,191.71,174.9639,195.71,164.9639,191.71,168.9639" style="stroke:#181818;stroke-width:1;"/><line style="stroke:#181818;stroke-width:1;" x1="191.71" x2="191.71" y1="208.9326" y2="228.9326"/><polygon fill="#181818" points="187.71,218.9326,191.71,228.9326,195.71,218.9326,191.71,222.9326" style="stroke:#181818;stroke-width:1;"/><line style="stroke:#181818;stroke-width:1;" x1="191.71" x2="191.71" y1="262.9014" y2="301.0498"/><polygon fill="#181818" points="187.71,291.0498,191.71,301.0498,195.71,291.0498,191.71,295.0498" style="stroke:#181818;stroke-width:1;"/><line style="stroke:#181818;stroke-width:1;" x1="2188.4796" x2="2188.4796" y1="471.1045" y2="509.2529"/><polygon fill="#181818" points="2184.4796,499.2529,2188.4796,509.2529,2192.4796,499.2529,2188.4796,503.2529" style="stroke:#181818;stroke-width:1;"/><line style="stroke:#181818;stroke-width:1;" x1="2188.4796" x2="2188.4796" y1="543.2217" y2="591.3701"/><polygon fill="#181818" points="2184.4796,581.3701,2188.4796,591.3701,2192.4796,581.3701,2188.4796,585.3701" style="stroke:#181818;stroke-width:1;"/><line style="stroke:#181818;stroke-width:1;" x1="2188.4796" x2="2188.4796" y1="625.3389" y2="645.3389"/><polygon fill="#181818" points="2184.4796,635.3389,2188.4796,645.3389,2192.4796,635.3389,2188.4796,639.3389" style="stroke:#181818;stroke-width:1;"/><line style="stroke:#181818;stroke-width:1;" x1="2188.4796" x2="2188.4796" y1="723.3076" y2="747.71"/><polygon fill="#181818" points="2184.4796,737.71,2188.4796,747.71,2192.4796,737.71,2188.4796,741.71" style="stroke:#181818;stroke-width:1;"/><line style="stroke:#181818;stroke-width:1;" x1="2351.0529" x2="2363.0529" y1="711.3076" y2="711.3076"/><polygon fill="#181818" points="2359.0529,754.6943,2363.0529,764.6943,2367.0529,754.6943,2363.0529,758.6943" style="stroke:#181818;stroke-width:1;"/><line style="stroke:#181818;stroke-width:1;" x1="2363.0529" x2="2363.0529" y1="711.3076" y2="813.6787"/><line style="stroke:#181818;stroke-width:1;" x1="2363.0529" x2="2200.4796" y1="813.6787" y2="813.6787"/><polygon fill="#181818" points="2210.4796,809.6787,2200.4796,813.6787,2210.4796,817.6787,2206.4796,813.6787" style="stroke:#181818;stroke-width:1;"/><line style="stroke:#181818;stroke-width:1;" x1="2188.4796" x2="2188.4796" y1="781.6787" y2="801.6787"/><polygon fill="#181818" points="2184.4796,791.6787,2188.4796,801.6787,2192.4796,791.6787,2188.4796,795.6787" style="stroke:#181818;stroke-width:1;"/><line style="stroke:#181818;stroke-width:1;" x1="2188.4796" x2="2188.4796" y1="679.3076" y2="699.3076"/><polygon fill="#181818" points="2184.4796,689.3076,2188.4796,699.3076,2192.4796,689.3076,2188.4796,693.3076" style="stroke:#181818;stroke-width:1;"/><line style="stroke:#181818;stroke-width:1;" x1="2051.8273" x2="2020.7003" y1="857.6787" y2="857.6787"/><line style="stroke:#181818;stroke-width:1;" x1="2020.7003" x2="2020.7003" y1="857.6787" y2="879.6787"/><polygon fill="#181818" points="2016.7003,869.6787,2020.7003,879.6787,2024.7003,869.6787,2020.7003,873.6787" style="stroke:#181818;stroke-width:1;"/><line style="stroke:#181818;stroke-width:1;" x1="2325.132" x2="2356.2589" y1="857.6787" y2="857.6787"/><line style="stroke:#181818;stroke-width:1;" x1="2356.2589" x2="2356.2589" y1="857.6787" y2="879.6787"/><polygon fill="#181818" points="2352.2589,869.6787,2356.2589,879.6787,2360.2589,869.6787,2356.2589,873.6787" style="stroke:#181818;stroke-width:1;"/><line style="stroke:#181818;stroke-width:1;" x1="2020.7003" x2="2020.7003" y1="913.6475" y2="931.6475"/><line style="stroke:#181818;stroke-width:1;" x1="2020.7003" x2="2176.4796" y1="931.6475" y2="931.6475"/><polygon fill="#181818" points="2166.4796,927.6475,2176.4796,931.6475,2166.4796,935.6475,2170.4796,931.6475" style="stroke:#181818;stroke-width:1;"/><line style="stroke:#181818;stroke-width:1;" x1="2356.2589" x2="2356.2589" y1="913.6475" y2="931.6475"/><line style="stroke:#181818;stroke-width:1;" x1="2356.2589" x2="2200.4796" y1="931.6475" y2="931.6475"/><polygon fill="#181818" points="2210.4796,927.6475,2200.4796,931.6475,2210.4796,935.6475,2206.4796,931.6475" style="stroke:#181818;stroke-width:1;"/><line style="stroke:#181818;stroke-width:1;" x1="2188.4796" x2="2188.4796" y1="825.6787" y2="845.6787"/><polygon fill="#181818" points="2184.4796,835.6787,2188.4796,845.6787,2192.4796,835.6787,2188.4796,839.6787" style="stroke:#181818;stroke-width:1;"/><line style="stroke:#181818;stroke-width:1;" x1="2188.4796" x2="2188.4796" y1="943.6475" y2="963.6475"/><polygon fill="#181818" points="2184.4796,953.6475,2188.4796,963.6475,2192.4796,953.6475,2188.4796,957.6475" style="stroke:#181818;stroke-width:1;"/><line style="stroke:#181818;stroke-width:1;" x1="2188.4796" x2="2188.4796" y1="997.6162" y2="1017.6162"/><polygon fill="#181818" points="2184.4796,1007.6162,2188.4796,1017.6162,2192.4796,1007.6162,2188.4796,1011.6162" style="stroke:#181818;stroke-width:1;"/><line style="stroke:#181818;stroke-width:1;" x1="1987.8513" x2="1987.8513" y1="1339.8936" y2="1364.2959"/><polygon fill="#181818" points="1983.8513,1354.2959,1987.8513,1364.2959,1991.8513,1354.2959,1987.8513,1358.2959" style="stroke:#181818;stroke-width:1;"/><line style="stroke:#181818;stroke-width:1;" x1="2170.3862" x2="2182.3862" y1="1327.8936" y2="1327.8936"/><polygon fill="#181818" points="2178.3862,1371.2803,2182.3862,1381.2803,2186.3862,1371.2803,2182.3862,1375.2803" style="stroke:#181818;stroke-width:1;"/><line style="stroke:#181818;stroke-width:1;" x1="2182.3862" x2="2182.3862" y1="1327.8936" y2="1430.2646"/><line style="stroke:#181818;stroke-width:1;" x1="2182.3862" x2="1999.8513" y1="1430.2646" y2="1430.2646"/><polygon fill="#181818" points="2009.8513,1426.2646,1999.8513,1430.2646,2009.8513,1434.2646,2005.8513,1430.2646" style="stroke:#181818;stroke-width:1;"/><line style="stroke:#181818;stroke-width:1;" x1="1987.8513" x2="1987.8513" y1="1398.2646" y2="1418.2646"/><polygon fill="#181818" points="1983.8513,1408.2646,1987.8513,1418.2646,1991.8513,1408.2646,1987.8513,1412.2646" style="stroke:#181818;stroke-width:1;"/><line style="stroke:#181818;stroke-width:1;" x1="1987.8513" x2="1987.8513" y1="1442.2646" y2="1463.8467"/><polygon fill="#181818" points="1983.8513,1453.8467,1987.8513,1463.8467,1991.8513,1453.8467,1987.8513,1457.8467" style="stroke:#181818;stroke-width:1;"/><line style="stroke:#181818;stroke-width:1;" x1="1987.8513" x2="1987.8513" y1="1497.8154" y2="1517.8154"/><polygon fill="#181818" points="1983.8513,1507.8154,1987.8513,1517.8154,1991.8513,1507.8154,1987.8513,1511.8154" style="stroke:#181818;stroke-width:1;"/><line style="stroke:#181818;stroke-width:1;" x1="1987.8513" x2="1987.8513" y1="1551.7842" y2="1571.7842"/><polygon fill="#181818" points="1983.8513,1561.7842,1987.8513,1571.7842,1991.8513,1561.7842,1987.8513,1565.7842" style="stroke:#181818;stroke-width:1;"/><line style="stroke:#181818;stroke-width:1;" x1="2043.2067" x2="1987.8513" y1="1293.8936" y2="1293.8936"/><line style="stroke:#181818;stroke-width:1;" x1="1987.8513" x2="1987.8513" y1="1293.8936" y2="1315.8936"/><polygon fill="#181818" points="1983.8513,1305.8936,1987.8513,1315.8936,1991.8513,1305.8936,1987.8513,1309.8936" style="stroke:#181818;stroke-width:1;"/><line style="stroke:#181818;stroke-width:1;" x1="2333.7526" x2="2389.1079" y1="1293.8936" y2="1293.8936"/><line style="stroke:#181818;stroke-width:1;" x1="2389.1079" x2="2389.1079" y1="1293.8936" y2="1315.8936"/><polygon fill="#181818" points="2385.1079,1305.8936,2389.1079,1315.8936,2393.1079,1305.8936,2389.1079,1309.8936" style="stroke:#181818;stroke-width:1;"/><line style="stroke:#181818;stroke-width:1;" x1="1987.8513" x2="1987.8513" y1="1605.7529" y2="1623.7529"/><line style="stroke:#181818;stroke-width:1;" x1="1987.8513" x2="2176.4796" y1="1623.7529" y2="1623.7529"/><polygon fill="#181818" points="2166.4796,1619.7529,2176.4796,1623.7529,2166.4796,1627.7529,2170.4796,1623.7529" style="stroke:#181818;stroke-width:1;"/><line style="stroke:#181818;stroke-width:1;" x1="2389.1079" x2="2389.1079" y1="1349.8623" y2="1623.7529"/><line style="stroke:#181818;stroke-width:1;" x1="2389.1079" x2="2200.4796" y1="1623.7529" y2="1623.7529"/><polygon fill="#181818" points="2210.4796,1619.7529,2200.4796,1623.7529,2210.4796,1627.7529,2206.4796,1623.7529" style="stroke:#181818;stroke-width:1;"/><line style="stroke:#181818;stroke-width:1;" x1="2188.4796" x2="2188.4796" y1="1261.8936" y2="1281.8936"/><polygon fill="#181818" points="2184.4796,1271.8936,2188.4796,1281.8936,2192.4796,1271.8936,2188.4796,1275.8936" style="stroke:#181818;stroke-width:1;"/><line style="stroke:#181818;stroke-width:1;" x1="2188.4796" x2="2188.4796" y1="1203.5225" y2="1227.9248"/><polygon fill="#181818" points="2184.4796,1217.9248,2188.4796,1227.9248,2192.4796,1217.9248,2188.4796,1221.9248" style="stroke:#181818;stroke-width:1;"/><line style="stroke:#181818;stroke-width:1;" x1="2292.3038" x2="2595.8296" y1="1191.5225" y2="1191.5225"/><polygon fill="#181818" points="2591.8296,1433.8467,2595.8296,1443.8467,2599.8296,1433.8467,2595.8296,1437.8467" style="stroke:#181818;stroke-width:1;"/><line style="stroke:#181818;stroke-width:1;" x1="2595.8296" x2="2595.8296" y1="1191.5225" y2="1667.7529"/><line style="stroke:#181818;stroke-width:1;" x1="2595.8296" x2="2200.4796" y1="1667.7529" y2="1667.7529"/><polygon fill="#181818" points="2210.4796,1663.7529,2200.4796,1667.7529,2210.4796,1671.7529,2206.4796,1667.7529" style="stroke:#181818;stroke-width:1;"/><line style="stroke:#181818;stroke-width:1;" x1="2188.4796" x2="2188.4796" y1="1635.7529" y2="1655.7529"/><polygon fill="#181818" points="2184.4796,1645.7529,2188.4796,1655.7529,2192.4796,1645.7529,2188.4796,1649.7529" style="stroke:#181818;stroke-width:1;"/><line style="stroke:#181818;stroke-width:1;" x1="2188.4796" x2="2188.4796" y1="1159.5225" y2="1179.5225"/><polygon fill="#181818" points="2184.4796,1169.5225,2188.4796,1179.5225,2192.4796,1169.5225,2188.4796,1173.5225" style="stroke:#181818;stroke-width:1;"/><line style="stroke:#181818;stroke-width:1;" x1="2188.4796" x2="2188.4796" y1="2218.9053" y2="2238.9053"/><polygon fill="#181818" points="2184.4796,2228.9053,2188.4796,2238.9053,2192.4796,2228.9053,2188.4796,2232.9053" style="stroke:#181818;stroke-width:1;"/><line style="stroke:#181818;stroke-width:1;" x1="4959.3644" x2="4959.3644" y1="1836.0928" y2="1856.0928"/><polygon fill="#181818" points="4955.3644,1846.0928,4959.3644,1856.0928,4963.3644,1846.0928,4959.3644,1850.0928" style="stroke:#181818;stroke-width:1;"/><line style="stroke:#181818;stroke-width:1;" x1="4959.3644" x2="4959.3644" y1="1890.0615" y2="1910.0615"/><polygon fill="#181818" points="4955.3644,1900.0615,4959.3644,1910.0615,4963.3644,1900.0615,4959.3644,1904.0615" style="stroke:#181818;stroke-width:1;"/><line style="stroke:#181818;stroke-width:1;" x1="4959.3644" x2="4959.3644" y1="2066.9678" y2="2086.9678"/><polygon fill="#181818" points="4955.3644,2076.9678,4959.3644,2086.9678,4963.3644,2076.9678,4959.3644,2080.9678" style="stroke:#181818;stroke-width:1;"/><line style="stroke:#181818;stroke-width:1;" x1="4959.3644" x2="4959.3644" y1="1777.7217" y2="1802.124"/><polygon fill="#181818" points="4955.3644,1792.124,4959.3644,1802.124,4963.3644,1792.124,4959.3644,1796.124" style="stroke:#181818;stroke-width:1;"/><line style="stroke:#181818;stroke-width:1;" x1="4767.6207" x2="4754.7296" y1="1765.7217" y2="1765.7217"/><polygon fill="#181818" points="4750.7296,1951.5303,4754.7296,1961.5303,4758.7296,1951.5303,4754.7296,1955.5303" style="stroke:#181818;stroke-width:1;"/><line style="stroke:#181818;stroke-width:1;" x1="4754.7296" x2="4754.7296" y1="1765.7217" y2="2152.9365"/><line style="stroke:#181818;stroke-width:1;" x1="4754.7296" x2="4947.3644" y1="2152.9365" y2="2152.9365"/><polygon fill="#181818" points="4937.3644,2148.9365,4947.3644,2152.9365,4937.3644,2156.9365,4941.3644,2152.9365" style="stroke:#181818;stroke-width:1;"/><line style="stroke:#181818;stroke-width:1;" x1="4959.3644" x2="4959.3644" y1="2120.9365" y2="2140.9365"/><polygon fill="#181818" points="4955.3644,2130.9365,4959.3644,2140.9365,4963.3644,2130.9365,4959.3644,2134.9365" style="stroke:#181818;stroke-width:1;"/><line style="stroke:#181818;stroke-width:1;" x1="4959.3644" x2="4959.3644" y1="1733.7217" y2="1753.7217"/><polygon fill="#181818" points="4955.3644,1743.7217,4959.3644,1753.7217,4963.3644,1743.7217,4959.3644,1747.7217" style="stroke:#181818;stroke-width:1;"/><line style="stroke:#181818;stroke-width:1;" x1="191.71" x2="191.71" y1="335.0186" y2="366.5928"/><line style="stroke:#181818;stroke-width:1;" x1="191.71" x2="1135.2095" y1="366.5928" y2="366.5928"/><line style="stroke:#181818;stroke-width:1;" x1="1135.2095" x2="1135.2095" y1="366.5928" y2="383.167"/><polygon fill="#181818" points="1131.2095,373.167,1135.2095,383.167,1139.2095,373.167,1135.2095,377.167" style="stroke:#181818;stroke-width:1;"/><line style="stroke:#181818;stroke-width:1;" x1="1135.2095" x2="1135.2095" y1="417.1357" y2="422.1357"/><line style="stroke:#181818;stroke-width:1;" x1="1135.2095" x2="2188.4796" y1="422.1357" y2="422.1357"/><line style="stroke:#181818;stroke-width:1;" x1="2188.4796" x2="2188.4796" y1="422.1357" y2="437.1357"/><polygon fill="#181818" points="2184.4796,427.1357,2188.4796,437.1357,2192.4796,427.1357,2188.4796,431.1357" style="stroke:#181818;stroke-width:1;"/><line style="stroke:#181818;stroke-width:1;" x1="2188.4796" x2="2188.4796" y1="1051.585" y2="1056.585"/><line style="stroke:#181818;stroke-width:1;" x1="2188.4796" x2="4175.1715" y1="1056.585" y2="1056.585"/><line style="stroke:#181818;stroke-width:1;" x1="4175.1715" x2="4175.1715" y1="1056.585" y2="1071.585"/><polygon fill="#181818" points="4171.1715,1061.585,4175.1715,1071.585,4179.1715,1061.585,4175.1715,1065.585" style="stroke:#181818;stroke-width:1;"/><line style="stroke:#181818;stroke-width:1;" x1="4175.1715" x2="4175.1715" y1="1105.5537" y2="1110.5537"/><line style="stroke:#181818;stroke-width:1;" x1="4175.1715" x2="2188.4796" y1="1110.5537" y2="1110.5537"/><line style="stroke:#181818;stroke-width:1;" x1="2188.4796" x2="2188.4796" y1="1110.5537" y2="1125.5537"/><polygon fill="#181818" points="2184.4796,1115.5537,2188.4796,1125.5537,2192.4796,1115.5537,2188.4796,1119.5537" style="stroke:#181818;stroke-width:1;"/><line style="stroke:#181818;stroke-width:1;" x1="2188.4796" x2="2188.4796" y1="1679.7529" y2="1684.7529"/><line style="stroke:#181818;stroke-width:1;" x1="2188.4796" x2="4959.3644" y1="1684.7529" y2="1684.7529"/><line style="stroke:#181818;stroke-width:1;" x1="4959.3644" x2="4959.3644" y1="1684.7529" y2="1699.7529"/><polygon fill="#181818" points="4955.3644,1689.7529,4959.3644,1699.7529,4963.3644,1689.7529,4959.3644,1693.7529" style="stroke:#181818;stroke-width:1;"/><line style="stroke:#181818;stroke-width:1;" x1="4959.3644" x2="4959.3644" y1="1944.0303" y2="1961.5303"/><line style="stroke:#181818;stroke-width:1;" x1="4959.3644" x2="5271.5514" y1="1961.5303" y2="1961.5303"/><line style="stroke:#181818;stroke-width:1;" x1="5271.5514" x2="5271.5514" y1="1961.5303" y2="1979.0303"/><polygon fill="#181818" points="5267.5514,1969.0303,5271.5514,1979.0303,5275.5514,1969.0303,5271.5514,1973.0303" style="stroke:#181818;stroke-width:1;"/><line style="stroke:#181818;stroke-width:1;" x1="5271.5514" x2="5271.5514" y1="2012.999" y2="2017.999"/><line style="stroke:#181818;stroke-width:1;" x1="5271.5514" x2="4959.3644" y1="2017.999" y2="2017.999"/><line style="stroke:#181818;stroke-width:1;" x1="4959.3644" x2="4959.3644" y1="2017.999" y2="2032.999"/><polygon fill="#181818" points="4955.3644,2022.999,4959.3644,2032.999,4963.3644,2022.999,4959.3644,2026.999" style="stroke:#181818;stroke-width:1;"/><line style="stroke:#181818;stroke-width:1;" x1="4959.3644" x2="4959.3644" y1="2164.9365" y2="2169.9365"/><line style="stroke:#181818;stroke-width:1;" x1="4959.3644" x2="2188.4796" y1="2169.9365" y2="2169.9365"/><line style="stroke:#181818;stroke-width:1;" x1="2188.4796" x2="2188.4796" y1="2169.9365" y2="2184.9365"/><polygon fill="#181818" points="2184.4796,2174.9365,2188.4796,2184.9365,2192.4796,2174.9365,2188.4796,2178.9365" style="stroke:#181818;stroke-width:1;"/><text fill="#000000" font-family="Inter" font-size="18" lengthAdjust="spacing" textLength="153.2461" x="381.0046" y="71.75">Dzia&#322; planowania</text><text fill="#000000" font-family="Inter" font-size="18" lengthAdjust="spacing" textLength="26.042" x="1329.7649" y="71.75">HR</text><text fill="#000000" font-family="Inter" font-size="18" lengthAdjust="spacing" textLength="219.7266" x="2793.4622" y="71.75">Kierownik wykonawstwa</text><text fill="#000000" font-family="Inter" font-size="18" lengthAdjust="spacing" textLength="122.4492" x="4314.8075" y="71.75">Dy&#380;urny RDM</text><text fill="#000000" font-family="Inter" font-size="18" lengthAdjust="spacing" textLength="143.3848" x="4879.2264" y="71.75">Brygady w&#322;asne</text><text fill="#000000" font-family="Inter" font-size="18" lengthAdjust="spacing" textLength="185.1064" x="5177.9982" y="71.75">Brygada zewn&#281;trzna</text><?plantuml-src ZLRDRjj64BxpAHOe2YI0YYP1qeDqA9B6HegWYU4Y493RY1nBArAxn79PTXU-r8YHPp3w6Bdw5l6zEZCaPT9MWkeahMPdlk-RlwroRKfmi5ChIFErixN9VhE5TUg7K_aarS42Kg__qZwykczvSdBwxBYbTHcwtkhvwVDVJbwCh3AyWBhmfzRuTx13zRlnw1AlVO7g3RYTDNPDThO1er6jDBQt--iqf1jLEaWLvbLPMF2GXgtXKwsqQR3oeJz8ailNKKDxfSe2ZBY1owJou7moFtCnhAstJRr5-LyvcqOJ5idytCQLtiBuL1bGJv-fdSPAxszIjch_8J0nT5R_3z12mc8EyH1qyCWnCgiomLkh9kJMG5Fv1XQ9iHwLq-kDdwiplaHWSbiW-UplNwTgIt48XdWFH3MeI5xu88j8-ktKYv-UFb6PqG_zsHLkTmp9Xr95o5YecTA5RV_TVvwfD49bqqrxPOsH8oBMX1simI01sPNeqQHR9BtVd5ycym-Uj1L_6LjOjN9XJLxJpKo4ietHkVowkmmYLsOhlxyfEKggfyJFaHcwtXVP7Znz_T8ewo2g70eq6RWuzKEmtcfqOZiMbf2-pwYg73n81INgfO527y-JfaWU2hiMhTfFKw1Bt79Kc3-uEBjtRzRfy-QSPE66GE_2g5GfJaMQCsnYQtSsDJgDE0dsagwiQX-6hCqbXImDHREhAeAZ6hnmGDBLkQyT7MynCwHF_jqKpuvcU4PqZDv1GHLO49WLA5jz_R8Yg5rUPefQc6nK5NreI2ieLbJLH7lm1rm3shhWqO-2DA6zudxYKgKejhqjTDCL6zTmLHiMaKGHXwNj6oMPBz652vrBjTrbNQwDwcF0DqtLwya5a8opzi0TLjgeBMMFMuPp8Np38GZtzvfXc0c6qkOkf1e7Pcns9w0MCd7YP8np2k_jdV2gsb-F0E84u8Gf1GYbhhh8sT1x8T4Nwj57AH9KEpYQfWxoE1NmwsFbDsZK8m_vO-hi9gwB_OqeCX0SN3LgSpUpDIuIB2fKZoZUuuJQKby8XAdaUbnSmh49F9-f7BS40U-5F-kuiSwnfy8piyjFJtGITxwi-c4xs6yX7uXA15f2QOYKcAwkngMsw67FF-Jj5LqVyvlCWqQT_9rYKK-p9sVgPsfewLzgQysR81ea8ZQI3j0GS9jRwZhrzCcFoc54ryYkWGOSeILOgqh4MV0o2-rjxIZW-Ui_Q7WjUobwMr82E1Qa0nigJZGyQld25Dp7DGMjfDjKCzK8LDr9GDQT6qk8gCQQyDr9IhlGYvU3wuu6hJwKJNXXtGuuptPW1RmIZy_ERsWzEt24AKUcs6s1VgPAjIs3LDj1fVxI4FvUURrF1JJHqaZ1kX9ro4qdeWxw3ApMTZ5fgmDRsSM36ybC9zQ3Xhg7CG8zgzfRoKfx6mxZReger8N1xP2JUnpU4HOUGyE8xK7N1t2x-aXdohEaspmoI4dKzbEtHWw3KsogkW4vntvH8QzAMYp3iXpdZHlpI4zC6lGTKSsffiRrTwSlIpTAGCF93UAu7hhp0PVaybKt2LH3RLiPfEeynmuV3HYUZyoli0Px9jHl5UbB3mv9o1aTmlZb1br29OT1raCtnJjbzZSgOcEeNrmq--iZ8wj_Pb9m2aC9pEn4sZ2wZrlIyqzER2OZKDNydTYnBjymN_RpMkmjFMXoBq-figvYVteKwG77Of0CHlzpKo-PiMmrCgFR8qtsrujZGXys8Rdtc6xunSBL76dijf-wzIxU2FT76E6cQfQfYx8Js5G0TXpurk9OfhyrZKQlxD6ZUloq6gOHiR93uT729E-nApWsb2TxvMtv7m00?></g></svg>